<svg width="137" height="21" fill="none" xmlns="http://www.w3.org/2000/svg"><path d="M.5 16v-1.7l1.6-.3V3.8L.5 3.5V1.8H5l6.1 9.8h.1V3.8l-1.8-.3V1.8h5.9v1.7l-1.6.3V16H11L4.7 6.2V14l1.7.3V16H.5Zm20.8.2c-1 0-1.9-.2-2.6-.7-.8-.4-1.3-1-1.8-1.8-.4-.8-.6-1.7-.6-2.7v-.4c0-1 .2-2 .6-2.8.4-.8 1-1.4 1.7-1.9.7-.4 1.5-.7 2.5-.7 1.4 0 2.5.5 3.3 1.3a5 5 0 0 1 1 3.5v1.6h-6.1c0 .7.2 1.3.7 1.7.4.5 1 .7 1.7.7a5.2 5.2 0 0 0 2.8-.8l.8 1.8-1.7.9a7 7 0 0 1-2.3.3Zm-2-6.5h3.5v-.3c0-.6-.1-1.1-.4-1.5-.2-.4-.7-.6-1.3-.6-.5 0-1 .3-1.3.7-.3.4-.5 1-.5 1.6Zm11 6.3-2.5-8.6-1.3-.2V5.4h5.1v1.7l-1 .3.9 4 .2.9.3-.8 2.2-6H36l2 6 .4 1 .3-1 1.1-4.1-1.2-.3V5.4h5v1.8l-1.2.2-2.7 8.6h-2.4l-2-5.2-.3-1.2-.4 1.2-2 5.2h-2.4Zm18.8.2a10.3 10.3 0 0 1-4.1-.9v-3h2l.3 1.6a3.5 3.5 0 0 0 1.6.3c.7 0 1.1 0 1.4-.3.2-.2.4-.4.4-.8 0-.3-.2-.5-.4-.7-.3-.3-.9-.5-1.7-.6a5.8 5.8 0 0 1-2.8-1.2c-.6-.6-.8-1.3-.8-2.1 0-.6.1-1.2.4-1.6a3 3 0 0 1 1.3-1.2c.7-.3 1.4-.4 2.4-.4a9.4 9.4 0 0 1 3.8.8V9H51l-.3-1.4c-.4-.3-.9-.4-1.4-.4-.5 0-1 .1-1.2.3a1 1 0 0 0-.4.8c0 .3.1.5.4.7.2.2.7.4 1.5.6a7 7 0 0 1 2.9 1.2c.6.5.9 1.2.9 2.1a3 3 0 0 1-1 2.4c-.8.6-1.8 1-3.3 1Zm5.5-.2v-1.7l1.5-.3V3.8l-1.5-.3V1.8h11v3.8h-2.1L63.3 4H59v3.6h4.8v2.2H59v4h4.6l.1-1.7H66V16H54.6Zm12.5 0v-1.7l1.4-.2 3-3.4-2.8-3.4-1.3-.1V5.4h5.2v1.7l-.8.1 1.5 2 1.6-2-1-.1V5.4H79v1.8l-1.2.1-2.7 3.3 3 3.5 1.3.2V16H74v-1.6l1-.2-1.7-2-1.6 2 1 .2V16H67Zm13.2 4v-1.7l1.4-.2V7.4L80 7.2V5.4h4.2l.1 1.3c.3-.5.7-.8 1.2-1 .4-.3 1-.5 1.5-.5.9 0 1.6.3 2.2.7.6.5 1 1.2 1.4 2 .3.8.5 1.8.5 2.9v.2c0 1-.2 2-.5 2.7-.3.8-.8 1.4-1.4 1.9-.6.4-1.3.6-2.2.6-1 0-2-.4-2.6-1.2v3l1.4.3v1.8h-5.6Zm6-6c.7 0 1.2-.3 1.6-.8.3-.5.4-1.3.4-2.2v-.2a5 5 0 0 0-.5-2.4c-.3-.6-.8-1-1.5-1-.8 0-1.4.4-1.8 1v4.7c.4.6 1 1 1.8 1Zm5.8 2v-1.7l1.4-.3V2.8L92 2.5V.8h4.3V14l1.4.3V16h-5.6Zm11.4.2c-1 0-2-.2-2.7-.7-.7-.4-1.3-1-1.7-1.9-.4-.8-.6-1.7-.6-2.8v-.2c0-1 .2-2 .6-2.8.4-.8 1-1.4 1.7-1.9a5 5 0 0 1 2.7-.7c1 0 2 .3 2.7.7.7.5 1.3 1.1 1.7 2 .4.7.6 1.7.6 2.7v.2c0 1-.2 2-.6 2.8-.4.8-1 1.5-1.7 2a5 5 0 0 1-2.7.6Zm0-2.2c.7 0 1.3-.3 1.6-.9.4-.5.5-1.3.5-2.3v-.2c0-1-.1-1.7-.5-2.3-.3-.6-.9-.9-1.6-.9-.8 0-1.3.3-1.6 1-.4.5-.5 1.3-.5 2.2v.2c0 1 .1 1.8.5 2.3.3.6.9 1 1.6 1Zm6.5 2v-1.7l1.3-.3V7.4l-1.5-.2V5.4h4.2l.1 1.3V7c.5-1.2 1.3-1.8 2.4-1.8a4.2 4.2 0 0 1 1 .2l-.2 2.6h-1.5l-1 .1-.6.7V14l1.4.3V16H110Zm13.3.2c-1 0-2-.2-2.7-.7-.7-.4-1.3-1-1.7-1.8-.4-.8-.6-1.7-.6-2.7v-.4c0-1 .1-2 .5-2.8.4-.8 1-1.4 1.7-1.9.7-.4 1.5-.7 2.5-.7 1.4 0 2.5.5 3.3 1.3a5 5 0 0 1 1.1 3.5v1.6h-6.2c0 .7.3 1.3.7 1.7.4.5 1 .7 1.7.7a5.2 5.2 0 0 0 2.8-.8l.8 1.8-1.7.9a7 7 0 0 1-2.2.3Zm-2-6.5h3.5v-.3c0-.6-.2-1.1-.4-1.5-.3-.4-.7-.6-1.3-.6-.6 0-1 .3-1.3.7-.3.4-.5 1-.6 1.6ZM129 16v-1.7l1.3-.3V7.4l-1.5-.2V5.4h4.2v1.3l.1.3c.5-1.2 1.3-1.8 2.3-1.8a4.2 4.2 0 0 1 1.1.2l-.3 2.6h-1.4l-1 .1-.6.7V14l1.3.3V16H129Z" fill="#fff"/></svg>